<svg width="95" height="21" viewBox="0 0 95 21" fill="none" xmlns="http://www.w3.org/2000/svg">
<path d="M94.6005 9.38607V7.72967H92.5438V5.15459L92.4747 5.17598L90.5049 5.77864V7.72967H87.4556V6.64205C87.4263 6.23028 87.5455 5.82164 87.7917 5.49024C87.9103 5.3601 88.0564 5.25802 88.2194 5.1914C88.3824 5.12478 88.5582 5.09531 88.734 5.10511C89.0429 5.10923 89.3474 5.17849 89.6277 5.30837L89.7035 5.34225V3.59937L89.6678 3.58645C89.2981 3.47255 88.912 3.42103 88.5254 3.434C87.9611 3.4251 87.4038 3.55896 86.9051 3.82314C86.4367 4.07519 86.0507 4.4568 85.7934 4.92235C85.5259 5.41723 85.3904 5.97262 85.3998 6.53507V7.72967H83.9676V9.38607H85.3998V16.3634H87.4556V9.38607H90.5049V13.8186C90.5049 15.6462 91.3661 16.5702 93.0653 16.5702C93.3588 16.5685 93.6513 16.5361 93.9381 16.4735C94.1583 16.4361 94.3722 16.3683 94.5737 16.272L94.6009 16.2559V14.5844L94.5171 14.6397C94.3896 14.7204 94.2501 14.7806 94.1039 14.818C93.9722 14.8587 93.8356 14.8819 93.6978 14.8871C93.5376 14.9011 93.3762 14.8798 93.225 14.8247C93.0738 14.7697 92.9366 14.6821 92.8228 14.5683C92.6064 14.2422 92.5079 13.8518 92.5438 13.462V9.38607H94.6005ZM79.3755 14.8884C79.0474 14.9055 78.7197 14.8483 78.4168 14.721C78.114 14.5937 77.8438 14.3997 77.6264 14.1533C77.1755 13.5589 76.9525 12.8226 76.9979 12.0779C76.9501 11.3159 77.1726 10.5614 77.6264 9.94727C77.8392 9.69913 78.1059 9.50287 78.4061 9.37347C78.7063 9.24408 79.0321 9.18496 79.3586 9.20064C79.6752 9.18543 79.9912 9.24164 80.2832 9.36509C80.5751 9.48855 80.8356 9.67609 81.0453 9.91384C81.4956 10.5225 81.7141 11.2718 81.6613 12.0271C81.7133 12.7851 81.5092 13.5386 81.0818 14.1667C80.8733 14.4116 80.6104 14.6043 80.3141 14.7295C80.0179 14.8546 79.6964 14.9096 79.3755 14.8884ZM79.4669 7.51839C78.8517 7.48456 78.2362 7.57714 77.6582 7.79042C77.0802 8.00371 76.5521 8.33316 76.1064 8.75846C75.6894 9.21375 75.3673 9.74752 75.1589 10.3286C74.9504 10.9097 74.8597 11.5265 74.8922 12.143C74.8626 12.7336 74.9524 13.3241 75.156 13.8792C75.3596 14.4344 75.673 14.9428 76.0774 15.3743C76.4988 15.7789 76.9982 16.0934 77.5452 16.2987C78.0921 16.5039 78.6752 16.5955 79.2587 16.568C79.8649 16.5978 80.4706 16.5014 81.0376 16.2851C81.6046 16.0687 82.1206 15.737 82.5528 15.311C82.9663 14.8601 83.2865 14.3319 83.4949 13.7568C83.7033 13.1816 83.7957 12.5709 83.767 11.9598C83.8318 10.7674 83.4224 9.59766 82.6281 8.70586C82.2121 8.29994 81.7163 7.98489 81.1721 7.7807C80.6279 7.57651 80.0472 7.48764 79.4669 7.51973V7.51839ZM71.5771 7.51973C70.7222 7.48356 69.881 7.7435 69.1955 8.25566C68.9007 8.47943 68.663 8.7697 68.5018 9.10279C68.3405 9.43588 68.2602 9.80236 68.2675 10.1724C68.2603 10.5389 68.3284 10.903 68.4676 11.2422C68.6057 11.5546 68.8163 11.8296 69.0818 12.0445C69.4647 12.3323 69.8845 12.5674 70.3299 12.7434C70.6861 12.8833 71.0332 13.045 71.3694 13.2275C71.5463 13.3198 71.7022 13.4478 71.8272 13.6033C71.9188 13.7499 71.9631 13.921 71.9542 14.0936C71.9542 14.6731 71.5201 14.9557 70.6259 14.9557C70.2429 14.9466 69.8636 14.8772 69.5022 14.7502C69.0909 14.6158 68.7027 14.419 68.3513 14.1667L68.2657 14.1057V16.0852L68.2969 16.0999C68.6464 16.2526 69.012 16.3655 69.3867 16.4365C69.7692 16.5199 70.1591 16.5647 70.5506 16.5702C71.4486 16.6171 72.3357 16.3559 73.065 15.8298C73.3647 15.5999 73.6057 15.3023 73.7684 14.9615C73.9311 14.6206 74.0108 14.2461 74.0011 13.8685C74.0159 13.3297 73.8372 12.8035 73.4974 12.3851C73.0217 11.891 72.4351 11.5174 71.7862 11.2952C71.3492 11.1489 70.9379 10.935 70.5671 10.6614C70.4825 10.5734 70.417 10.4689 70.3747 10.3545C70.3324 10.2401 70.3141 10.1181 70.321 9.9963C70.3192 9.87615 70.3467 9.75737 70.4011 9.65021C70.4554 9.54305 70.535 9.45071 70.633 9.38117C70.8892 9.20397 71.197 9.11708 71.508 9.13423C71.8613 9.13591 72.2123 9.18983 72.5498 9.29425C72.8725 9.38833 73.1792 9.53048 73.4595 9.71593L73.5433 9.77343V7.89817L73.5112 7.88435C73.2135 7.76571 72.9038 7.67934 72.5877 7.62671C72.2539 7.56132 71.915 7.52626 71.5749 7.52196L71.5771 7.51973ZM62.9082 14.8884C62.5801 14.9055 62.2524 14.8483 61.9496 14.721C61.6467 14.5937 61.3765 14.3997 61.1591 14.1533C60.7089 13.5595 60.4861 12.8241 60.5311 12.0802C60.4832 11.3181 60.7058 10.5636 61.1596 9.9495C61.3723 9.70127 61.639 9.50496 61.9392 9.37556C62.2394 9.24616 62.5652 9.18709 62.8917 9.20287C63.2084 9.18766 63.5244 9.24387 63.8163 9.36732C64.1083 9.49078 64.3688 9.67832 64.5784 9.91607C65.0288 10.5247 65.2473 11.2741 65.1945 12.0294C65.2465 12.7873 65.0424 13.5408 64.615 14.169C64.4065 14.4139 64.1436 14.6066 63.8473 14.7318C63.5511 14.8569 63.2296 14.911 62.9087 14.8897L62.9082 14.8884ZM63.0005 7.52062C62.3853 7.48674 61.7698 7.57929 61.1918 7.79258C60.6138 8.00586 60.0857 8.33535 59.64 8.76069C59.223 9.21594 58.9008 9.74969 58.6922 10.3308C58.4837 10.9119 58.393 11.5287 58.4253 12.1453C58.3958 12.7359 58.4856 13.3264 58.6893 13.8816C58.893 14.4367 59.2065 14.9451 59.611 15.3765C60.0324 15.7811 60.5318 16.0957 61.0788 16.3009C61.6257 16.5062 62.2088 16.5978 62.7923 16.5702C63.3985 16.6 64.0042 16.5036 64.5712 16.2872C65.1382 16.0709 65.6542 15.7392 66.0864 15.3132C66.4999 14.8624 66.8201 14.3341 67.0285 13.759C67.2369 13.1838 67.3294 12.5731 67.3006 11.9621C67.3654 10.7695 66.9558 9.59976 66.1613 8.70809C65.7453 8.30222 65.2496 7.9872 64.7055 7.78302C64.1614 7.57883 63.5808 7.48993 63.0005 7.52196V7.52062ZM55.3047 9.22516V7.72967H53.2738V16.3634H55.3047V11.9465C55.2756 11.297 55.4528 10.6551 55.811 10.1126C55.9547 9.89633 56.1502 9.7195 56.3799 9.59833C56.6095 9.47716 56.8659 9.41553 57.1255 9.41906C57.3321 9.4222 57.5374 9.45217 57.7362 9.50821C57.9035 9.5454 58.0635 9.61017 58.2096 9.69988L58.2952 9.76184V7.71496L58.2622 7.7007C58.0074 7.60964 57.7374 7.56862 57.467 7.5799C56.9707 7.57502 56.489 7.74765 56.1088 8.06666C55.7529 8.37925 55.4837 8.77845 55.3274 9.2256L55.3047 9.22516ZM49.637 7.52151C48.7765 7.50418 47.9261 7.70865 47.1675 8.11525C46.47 8.49909 45.9029 9.08235 45.5388 9.79037C45.155 10.5602 44.9631 11.4114 44.9793 12.2714C44.9692 13.0469 45.1564 13.8123 45.5232 14.4957C45.8713 15.1434 46.3989 15.6769 47.0427 16.0322C47.7244 16.3991 48.4889 16.585 49.263 16.572C50.1164 16.5994 50.962 16.4015 51.7146 15.9983L51.7414 15.9831V14.1221L51.6558 14.1846C51.3518 14.405 51.017 14.5794 50.6622 14.7021C50.3505 14.8184 50.0217 14.8821 49.6891 14.8906C49.338 14.9077 48.9872 14.8506 48.6596 14.7229C48.332 14.5953 48.035 14.4 47.788 14.1498C47.2958 13.5829 47.0442 12.8462 47.0868 12.0967C47.0495 11.3262 47.3114 10.571 47.8179 9.98917C48.0607 9.72962 48.3564 9.52514 48.685 9.3895C49.0135 9.25387 49.3673 9.19023 49.7225 9.20287C50.4224 9.21386 51.1002 9.44968 51.6558 9.87551L51.7409 9.93746V7.97617L51.7133 7.96057C51.4175 7.80861 51.1009 7.70149 50.7736 7.64275C50.4003 7.5637 50.0199 7.52292 49.6383 7.52106L49.637 7.52151ZM43.5815 7.72923H41.5507V16.3634H43.5815V7.72923ZM42.587 4.05136C42.2652 4.04625 41.9544 4.16812 41.7218 4.39057C41.6048 4.49795 41.5119 4.629 41.4495 4.77502C41.387 4.92105 41.3563 5.0787 41.3594 5.2375C41.3559 5.39338 41.3859 5.54821 41.4474 5.69149C41.5089 5.83476 41.6005 5.96314 41.716 6.06792C41.9517 6.28704 42.2635 6.40569 42.5852 6.39867C42.9078 6.4051 43.2205 6.28678 43.458 6.06837C43.575 5.96434 43.668 5.8362 43.7307 5.69276C43.7935 5.54933 43.8244 5.39401 43.8213 5.2375C43.8229 5.08111 43.7924 4.92606 43.7316 4.78198C43.6708 4.6379 43.581 4.50785 43.4678 4.39993C43.3517 4.28538 43.2136 4.19546 43.0619 4.13556C42.9101 4.07566 42.7479 4.04702 42.5848 4.05136H42.587ZM37.5175 7.09225V16.3638H39.5903V4.31613H36.7219L33.0756 13.2645L29.5373 4.31613H26.5508V16.3629H28.4987V7.09136H28.5656L32.3018 16.3629H33.7728L37.4511 7.09136L37.5175 7.09225Z" fill="#718087"/>
<path d="M9.97608 9.84376H0.422363V0.290039H9.97608V9.84376Z" fill="#718087"/>
<path d="M20.5247 9.84376H10.971V0.290039H20.5247V9.84376Z" fill="#718087"/>
<path d="M9.97608 20.3959H0.422363V10.8422H9.97608V20.3959Z" fill="#718087"/>
<path d="M20.5247 20.3959H10.971V10.8422H20.5247V20.3959Z" fill="#718087"/>
</svg>
