<svg width="98" height="19" viewBox="0 0 98 19" fill="none" xmlns="http://www.w3.org/2000/svg">
<path d="M32.919 0.291818V7.4776H22.9079V0.291818L19.2617 0.288574V18.407H22.9079V10.6232H32.919V18.407H36.5711V0.291818H32.919Z" fill="#718087"/>
<path d="M81.4258 0.29248V18.4033H97.4224L95.3964 15.2149H85.0823V10.6239H95.0695V7.55294H85.0823V3.40619H95.3791L97.364 0.29248H81.4258Z" fill="#718087"/>
<path d="M5.70849 0.287598C1.91565 0.287598 0 2.59339 0 5.94846V12.7116C0 16.5943 2.46868 18.4071 5.68954 18.4071L17.1292 18.406L15.0085 15.0943H6.39627C4.56667 15.0943 3.76958 14.433 3.76958 12.3853V6.24933C3.76958 4.26984 4.4406 3.49764 6.44497 3.49764H15.0983L17.1346 0.287598H5.70849Z" fill="#718087"/>
<path d="M65.4234 0.283135C63.2329 0.283135 60.9877 1.59973 60.9877 4.98618V5.85632C60.9877 9.38672 63.1479 10.7336 65.3092 10.7428H72.8955C73.6834 10.7428 74.3235 10.8738 74.3235 12.2055L74.3224 13.744C74.3024 14.9404 73.7055 15.2143 72.8684 15.2143H62.8882L60.8438 18.4026H73.1033C76.0595 18.4026 78.0666 16.9318 78.0666 13.5346V12.2861C78.0666 9.00143 76.2018 7.44944 73.3105 7.44944H66.0668C65.2638 7.44944 64.7042 7.23028 64.7042 6.04085V4.78812C64.7042 3.77511 65.0879 3.40551 66.0235 3.40551L75.5281 3.40172L77.5146 0.278809L65.4234 0.283135Z" fill="#718087"/>
<path d="M47.1648 0.29248L38.5742 18.4066H42.6344L44.3076 14.6657H53.6428L55.3106 18.4066H59.3886L50.778 0.29248H47.1648ZM48.9663 4.0534L52.2672 11.5823H45.6864L48.9663 4.0534Z" fill="#718087"/>
</svg>
